<svg width="68" height="67" viewBox="0 0 68 67" fill="none" xmlns="http://www.w3.org/2000/svg">
<g clip-path="url(#clip0_62_80)">
<path d="M33.2739 45.825C29.7811 46.5502 26.3517 47.5248 22.9512 48.5923L26.052 54.4923C26.052 54.4923 26.0693 54.4865 26.0751 54.4807C32.3056 51.9745 38.9685 51.4233 45.5794 50.6227L48.9108 43.9512C46.5881 44.2877 44.2365 44.4385 41.8964 44.6183C38.9973 44.8388 36.127 45.2217 33.2739 45.8192V45.825Z" fill="white"/>
<path d="M29.6826 61.419C30.8815 60.9665 32.1034 60.5662 33.3368 60.2181C36.0803 59.4407 38.8699 58.8954 41.6711 58.4255L44.6394 52.4849C38.6451 53.1926 32.4492 53.8424 26.8584 56.0527L29.6768 61.419H29.6826Z" fill="white"/>
<path d="M3.98228 -0.00010319C1.00245 -0.0407128 -0.93415 3.13844 0.460663 5.78386L0.806484 6.44522C5.22723 6.3814 9.65374 6.3582 14.0745 6.47422C15.5327 6.50903 16.9852 6.56705 18.4434 6.63086L16.6739 3.19645C15.7056 1.32841 13.7978 0.144931 11.6999 0.115924L3.98228 -0.00010319Z" fill="white"/>
<path d="M64.1322 0.88176L58.259 0.794739C55.4924 0.75413 52.9275 2.27409 51.625 4.73387L48.3281 10.9587C49.4751 11.1792 50.6221 11.3938 51.7806 11.5853C56.1206 12.2989 60.4434 12.4671 64.7489 12.2466L67.5731 6.59611C68.8699 3.99709 67.0198 0.922369 64.1322 0.88176Z" fill="white"/>
<path d="M26.6105 37.3203C23.5442 37.3435 20.426 37.506 17.3828 37.9991L22.1263 47.0318C23.1234 46.7186 24.1263 46.4053 25.1292 46.1094C30.7027 44.4676 36.3396 43.3073 42.1321 42.8664C44.6854 42.675 47.3136 42.53 49.8554 42.0542L53.0024 35.7598C52.1667 35.9918 51.3252 36.2123 50.4779 36.3921C42.622 38.0745 34.5701 37.2565 26.6162 37.3145L26.6105 37.3203Z" fill="white"/>
<path d="M32.1094 33.1376L29.1238 27.342C28.167 27.2666 27.216 27.1912 26.2593 27.1273C21.435 26.8083 16.5474 26.7096 11.7578 27.2956L16.5301 36.3805C24.0518 35.081 31.6714 35.8062 39.2564 35.7308C43.3198 35.6902 47.3832 35.4001 51.3371 34.4081C52.2535 34.176 53.1642 33.9149 54.0633 33.6365L56.8817 27.9976C55.1814 28.247 53.4696 28.4095 51.7578 28.4965C47.5676 28.7111 43.3832 28.5197 39.2045 28.2006L36.582 33.155C35.6252 34.9592 33.0489 34.9476 32.1152 33.1318L32.1094 33.1376Z" fill="white"/>
<path d="M40.2532 26.5355C46.1091 26.9474 52.0687 27.0692 57.844 26.0656L60.9679 19.8175C57.3483 20.2352 53.6999 20.3106 50.0514 20.1714C47.9189 20.0902 45.7863 19.951 43.6595 19.7827L40.0918 26.5239C40.1437 26.5239 40.2013 26.5297 40.2532 26.5355Z" fill="white"/>
<path d="M24.0061 18.1929C18.3462 17.9608 12.6747 17.9956 7.02051 18.2741L10.8879 25.636C12.1848 25.462 13.4874 25.3285 14.79 25.2473C19.2568 24.9689 23.7179 25.1719 28.179 25.52L24.4153 18.2219C24.277 18.2161 24.1444 18.2045 24.0061 18.1987V18.1929Z" fill="white"/>
<path d="M31.5154 64.8998C33.0024 67.7308 37.0485 67.6902 38.4779 64.8302L40.72 60.3457C37.2445 60.9606 33.8036 61.7438 30.501 62.9621L31.5211 64.8998H31.5154Z" fill="white"/>
<path d="M61.9015 17.9554L63.8381 14.0801C59.1465 14.2193 54.4779 13.848 49.8151 13.0068C49.037 12.8676 48.2589 12.7168 47.4865 12.5659L44.5586 18.1004C50.3453 18.5587 56.1609 18.7502 61.9073 17.9554H61.9015Z" fill="white"/>
<path d="M1.71191 8.16835L6.1269 16.5745C8.20759 16.4643 10.2883 16.3773 12.369 16.3309C16.0923 16.2555 19.8041 16.3135 23.5102 16.4701L19.3603 8.4178C13.4871 8.11613 7.59664 8.08713 1.71191 8.16835Z" fill="white"/>
<path d="M29.1182 27.3416C32.4784 27.6143 35.8387 27.9508 39.1989 28.2061L40.0923 26.5237C36.1268 26.2394 32.1557 25.8275 28.1787 25.52L29.1182 27.3474V27.3416Z" fill="white"/>
</g>
<defs>
<clipPath id="clip0_62_80">
<rect width="68" height="67" fill="white"/>
</clipPath>
</defs>
</svg>
