<svg width="91" height="37" viewBox="0 0 91 37" fill="none" xmlns="http://www.w3.org/2000/svg">
<path d="M20.3273 12.3362C20.7413 12.3362 21.0383 12.4262 21.2183 12.6062C21.4163 12.7862 21.5153 13.0202 21.5153 13.3082C21.5153 13.7762 21.3713 14.1902 21.0833 14.5502C20.8133 14.9102 20.3813 15.0992 19.7873 15.1172C18.3473 15.1532 17.0693 15.0452 15.9533 14.7932C14.6753 17.4752 13.1273 19.7072 11.3093 21.4892C9.50931 23.2532 7.70031 24.1352 5.88231 24.1352C4.01031 24.1352 2.61531 23.0462 1.69731 20.8682C0.779313 18.6902 0.320312 15.7472 0.320312 12.0392C0.320312 8.8712 0.545312 6.0272 0.995312 3.5072C1.15731 2.5712 1.38231 1.9412 1.67031 1.6172C1.97631 1.2752 2.48931 1.1042 3.20931 1.1042C4.39731 1.1042 4.99131 1.6172 4.99131 2.6432C4.99131 2.7512 4.97331 2.9492 4.93731 3.2372C4.39731 6.4772 4.12731 9.4112 4.12731 12.0392C4.12731 14.7932 4.35231 16.8902 4.80231 18.3302C5.27031 19.7522 5.96331 20.4632 6.88131 20.4632C7.81731 20.4632 8.83431 19.8152 9.93231 18.5192C11.0303 17.2232 12.0383 15.5942 12.9563 13.6322C11.8583 12.9482 11.0303 12.0662 10.4723 10.9862C9.91431 9.8882 9.63531 8.6282 9.63531 7.2062C9.63531 5.7842 9.85131 4.5872 10.2833 3.6152C10.7333 2.6252 11.3363 1.8872 12.0923 1.4012C12.8663 0.915199 13.7213 0.672199 14.6573 0.672199C15.8093 0.672199 16.7183 1.0862 17.3843 1.9142C18.0683 2.7422 18.4103 3.8762 18.4103 5.3162C18.4103 7.3862 17.9603 9.6452 17.0603 12.0932C18.0143 12.2552 19.1033 12.3362 20.3273 12.3362ZM12.3623 7.0172C12.3623 8.7812 12.9293 10.0862 14.0633 10.9322C14.7653 8.9162 15.1163 7.2512 15.1163 5.9372C15.1163 5.1812 15.0173 4.6322 14.8193 4.2902C14.6213 3.9302 14.3513 3.7502 14.0093 3.7502C13.5233 3.7502 13.1273 4.0382 12.8213 4.6142C12.5153 5.1722 12.3623 5.9732 12.3623 7.0172Z" fill="#333333"/>
<path d="M32.6581 15.7112C32.8921 15.7112 33.0721 15.8282 33.1981 16.0622C33.3241 16.2962 33.3871 16.5932 33.3871 16.9532C33.3871 17.8172 33.1261 18.3302 32.6041 18.4922C31.5241 18.8702 30.3361 19.0862 29.0401 19.1402C28.6981 20.6522 28.0231 21.8672 27.0151 22.7852C26.0071 23.6852 24.8641 24.1352 23.5861 24.1352C22.5061 24.1352 21.5791 23.8742 20.8051 23.3522C20.0491 22.8302 19.4731 22.1372 19.0771 21.2732C18.6811 20.4092 18.4831 19.4732 18.4831 18.4652C18.4831 17.0972 18.7441 15.8822 19.2661 14.8202C19.7881 13.7402 20.5081 12.9032 21.4261 12.3092C22.3441 11.6972 23.3611 11.3912 24.4771 11.3912C25.8451 11.3912 26.9431 11.8682 27.7711 12.8222C28.6171 13.7582 29.1121 14.9192 29.2561 16.3052C30.1021 16.2512 31.1101 16.0712 32.2801 15.7652C32.4241 15.7292 32.5501 15.7112 32.6581 15.7112ZM23.8021 21.2732C24.3781 21.2732 24.8731 21.0392 25.2871 20.5712C25.7191 20.1032 26.0071 19.4282 26.1511 18.5462C25.5931 18.1682 25.1611 17.6732 24.8551 17.0612C24.5671 16.4492 24.4231 15.8012 24.4231 15.1172C24.4231 14.8292 24.4501 14.5412 24.5041 14.2532H24.3691C23.6491 14.2532 23.0461 14.6042 22.5601 15.3062C22.0921 15.9902 21.8581 16.9622 21.8581 18.2222C21.8581 19.2122 22.0471 19.9682 22.4251 20.4902C22.8211 21.0122 23.2801 21.2732 23.8021 21.2732Z" fill="#333333"/>
<path d="M43.7973 17.9792C44.0313 17.9792 44.2113 18.0872 44.3373 18.3032C44.4813 18.5192 44.5533 18.8162 44.5533 19.1942C44.5533 19.9142 44.3823 20.4722 44.0403 20.8682C43.2663 21.8222 42.4203 22.6052 41.5023 23.2172C40.5843 23.8292 39.5313 24.1352 38.3433 24.1352C34.6713 24.1352 32.8353 21.5522 32.8353 16.3862C32.8353 15.5942 32.8623 14.7932 32.9163 13.9832H31.8633C31.3233 13.9832 30.9543 13.8842 30.7563 13.6862C30.5763 13.4882 30.4863 13.1732 30.4863 12.7412C30.4863 11.7332 30.8913 11.2292 31.7013 11.2292H33.2403C33.5463 9.2492 34.0143 7.4402 34.6443 5.8022C35.2743 4.1642 36.0303 2.8592 36.9123 1.8872C37.8123 0.915199 38.7753 0.429199 39.8013 0.429199C40.5573 0.429199 41.1513 0.762199 41.5833 1.4282C42.0153 2.0942 42.2313 2.9312 42.2313 3.9392C42.2313 6.7292 41.0613 9.1592 38.7213 11.2292H41.7453C42.0333 11.2292 42.2403 11.2922 42.3663 11.4182C42.4923 11.5442 42.5553 11.7782 42.5553 12.1202C42.5553 13.3622 41.5383 13.9832 39.5043 13.9832H36.2103C36.1743 14.8832 36.1563 15.5852 36.1563 16.0892C36.1563 17.9612 36.3723 19.2752 36.8043 20.0312C37.2543 20.7872 37.9563 21.1652 38.9103 21.1652C39.6843 21.1652 40.3683 20.9312 40.9623 20.4632C41.5563 19.9952 42.2583 19.2932 43.0683 18.3572C43.2843 18.1052 43.5273 17.9792 43.7973 17.9792ZM39.0723 3.0212C38.8023 3.0212 38.4963 3.3632 38.1543 4.0472C37.8303 4.7132 37.5153 5.6492 37.2093 6.8552C36.9213 8.0432 36.6783 9.3662 36.4803 10.8242C37.5423 9.9062 38.3343 8.8802 38.8563 7.7462C39.3963 6.5942 39.6663 5.5502 39.6663 4.6142C39.6663 3.5522 39.4683 3.0212 39.0723 3.0212Z" fill="#333333"/>
<path d="M54.3969 17.9792C54.6309 17.9792 54.8109 18.0872 54.9369 18.3032C55.0809 18.5192 55.1529 18.8162 55.1529 19.1942C55.1529 19.9142 54.9819 20.4722 54.6399 20.8682C53.9739 21.6782 53.0289 22.4252 51.8049 23.1092C50.5989 23.7932 49.3029 24.1352 47.9169 24.1352C46.0269 24.1352 44.5599 23.6222 43.5159 22.5962C42.4719 21.5702 41.9499 20.1662 41.9499 18.3842C41.9499 17.1422 42.2109 15.9902 42.7329 14.9282C43.2549 13.8482 43.9749 12.9932 44.8929 12.3632C45.8289 11.7332 46.8819 11.4182 48.0519 11.4182C49.0959 11.4182 49.9329 11.7332 50.5629 12.3632C51.1929 12.9752 51.5079 13.8122 51.5079 14.8742C51.5079 16.1162 51.0579 17.1872 50.1579 18.0872C49.2759 18.9692 47.7729 19.6712 45.6489 20.1932C46.0989 21.0212 46.9539 21.4352 48.2139 21.4352C49.0239 21.4352 49.9419 21.1562 50.9679 20.5982C52.0119 20.0222 52.9119 19.2752 53.6679 18.3572C53.8839 18.1052 54.1269 17.9792 54.3969 17.9792ZM47.5929 14.0642C46.9269 14.0642 46.3599 14.4512 45.8919 15.2252C45.4419 15.9992 45.2169 16.9352 45.2169 18.0332V18.0872C46.2789 17.8352 47.1159 17.4572 47.7279 16.9532C48.3399 16.4492 48.6459 15.8642 48.6459 15.1982C48.6459 14.8562 48.5469 14.5862 48.3489 14.3882C48.1689 14.1722 47.9169 14.0642 47.5929 14.0642Z" fill="#333333"/>
<path d="M66.6467 18.0332C66.8807 18.0332 67.0607 18.1502 67.1867 18.3842C67.3307 18.6002 67.4027 18.8792 67.4027 19.2212C67.4027 19.6352 67.3397 19.9592 67.2137 20.1932C67.0877 20.4272 66.8897 20.6342 66.6197 20.8142C65.0717 21.8582 63.9377 22.6322 63.2177 23.1362L61.4897 24.2972C60.8057 28.0232 59.9057 30.9482 58.7897 33.0722C57.6917 35.2142 56.2877 36.2852 54.5777 36.2852C53.6597 36.2852 52.9127 35.9972 52.3367 35.4212C51.7607 34.8632 51.4727 34.1252 51.4727 33.2072C51.4727 31.9292 51.9767 30.5522 52.9847 29.0762C53.9927 27.6182 55.8827 25.8182 58.6547 23.6762L58.8167 22.6232C58.5107 23.1092 58.1057 23.4872 57.6017 23.7572C57.1157 24.0092 56.6297 24.1352 56.1437 24.1352C55.0277 24.1352 54.1367 23.7302 53.4707 22.9202C52.8047 22.1102 52.4717 21.0482 52.4717 19.7342C52.4717 18.2942 52.8047 16.9352 53.4707 15.6572C54.1367 14.3612 55.0187 13.3262 56.1167 12.5522C57.2327 11.7602 58.4117 11.3642 59.6537 11.3642C60.0497 11.3642 60.3107 11.4452 60.4367 11.6072C60.5807 11.7512 60.6977 12.0212 60.7877 12.4172C61.1297 12.3452 61.5257 12.3092 61.9757 12.3092C62.4257 12.3092 62.7407 12.3812 62.9207 12.5252C63.1187 12.6512 63.2177 12.9122 63.2177 13.3082C63.2177 13.5242 63.2087 13.6952 63.1907 13.8212C63.1187 14.3792 62.8937 15.7922 62.5157 18.0602C62.4437 18.4922 62.3627 18.9692 62.2727 19.4912C62.2007 19.9952 62.1197 20.5352 62.0297 21.1112C63.4157 20.0312 64.7477 19.0772 66.0257 18.2492C66.2597 18.1052 66.4667 18.0332 66.6467 18.0332ZM57.1157 21.4082C57.5297 21.4082 57.9257 21.1562 58.3037 20.6522C58.6817 20.1482 58.9517 19.4282 59.1137 18.4922L59.9777 13.8752C59.2397 13.8932 58.5557 14.1812 57.9257 14.7392C57.2957 15.2792 56.7917 15.9992 56.4137 16.8992C56.0357 17.7992 55.8467 18.7532 55.8467 19.7612C55.8467 20.3192 55.9547 20.7332 56.1707 21.0032C56.4047 21.2732 56.7197 21.4082 57.1157 21.4082ZM54.8747 33.6662C55.3247 33.6662 55.8287 33.1262 56.3867 32.0462C56.9627 30.9662 57.5117 29.2472 58.0337 26.8892C56.6477 28.0772 55.6487 29.1482 55.0367 30.1022C54.4247 31.0562 54.1187 31.8932 54.1187 32.6132C54.1187 32.9192 54.1727 33.1712 54.2807 33.3692C54.4067 33.5672 54.6047 33.6662 54.8747 33.6662Z" fill="#333333"/>
<path d="M68.7999 24.1352C67.6839 24.1352 66.7929 23.7302 66.1269 22.9202C65.4609 22.1102 65.1279 21.0482 65.1279 19.7342C65.1279 18.2942 65.4609 16.9352 66.1269 15.6572C66.7929 14.3612 67.6749 13.3262 68.7729 12.5522C69.8889 11.7602 71.0679 11.3642 72.3099 11.3642C72.7059 11.3642 72.9669 11.4452 73.0929 11.6072C73.2369 11.7512 73.3539 12.0212 73.4439 12.4172C73.8219 12.3452 74.2179 12.3092 74.6319 12.3092C75.5139 12.3092 75.9549 12.6242 75.9549 13.2542C75.9549 13.6322 75.8199 14.5322 75.5499 15.9542C75.1359 18.0242 74.9289 19.4642 74.9289 20.2742C74.9289 20.5442 74.9919 20.7602 75.1179 20.9222C75.2619 21.0842 75.4419 21.1652 75.6579 21.1652C75.9999 21.1652 76.4139 20.9492 76.8999 20.5172C77.3859 20.0672 78.0429 19.3472 78.8709 18.3572C79.0869 18.1052 79.3299 17.9792 79.5999 17.9792C79.8339 17.9792 80.0139 18.0872 80.1399 18.3032C80.2839 18.5192 80.3559 18.8162 80.3559 19.1942C80.3559 19.9142 80.1849 20.4722 79.8429 20.8682C79.1049 21.7862 78.3219 22.5602 77.4939 23.1902C76.6659 23.8202 75.8649 24.1352 75.0909 24.1352C74.4969 24.1352 73.9479 23.9372 73.4439 23.5412C72.9579 23.1272 72.5889 22.5692 72.3369 21.8672C71.4009 23.3792 70.2219 24.1352 68.7999 24.1352ZM69.7719 21.4082C70.1679 21.4082 70.5459 21.1742 70.9059 20.7062C71.2659 20.2382 71.5269 19.6172 71.6889 18.8432L72.6879 13.8752C71.9319 13.8932 71.2299 14.1812 70.5819 14.7392C69.9519 15.2792 69.4479 15.9992 69.0699 16.8992C68.6919 17.7992 68.5029 18.7532 68.5029 19.7612C68.5029 20.3192 68.6109 20.7332 68.8269 21.0032C69.0609 21.2732 69.3759 21.4082 69.7719 21.4082Z" fill="#333333"/>
<path d="M89.0695 15.1172C89.4655 15.1172 89.7985 15.2612 90.0685 15.5492C90.3565 15.8192 90.5005 16.1612 90.5005 16.5752C90.5005 16.8092 90.4465 17.0612 90.3385 17.3312C90.0505 17.9972 89.6455 18.5552 89.1235 19.0052C88.6015 19.4552 88.0255 19.6802 87.3955 19.6802C86.8915 19.6802 86.4595 19.5002 86.0995 19.1402C85.7575 18.7802 85.5865 18.2942 85.5865 17.6822C85.5865 17.3402 85.6045 16.9712 85.6405 16.5752C85.6765 16.2872 85.6945 16.0892 85.6945 15.9812C85.6945 15.8372 85.6585 15.7292 85.5865 15.6572C85.5325 15.5852 85.4605 15.5492 85.3705 15.5492C85.1185 15.5492 84.7765 15.8552 84.3445 16.4672C83.9125 17.0612 83.4805 17.8532 83.0485 18.8432C82.6165 19.8332 82.2655 20.8772 81.9955 21.9752C81.7975 22.8392 81.5725 23.4152 81.3205 23.7032C81.0685 23.9912 80.6545 24.1352 80.0785 24.1352C79.3945 24.1352 78.9085 23.7752 78.6205 23.0552C78.3505 22.3352 78.2155 21.1832 78.2155 19.5992C78.2155 17.2592 78.5485 15.0362 79.2145 12.9302C79.3765 12.4082 79.6375 12.0302 79.9975 11.7962C80.3755 11.5442 80.8975 11.4182 81.5635 11.4182C81.9235 11.4182 82.1755 11.4632 82.3195 11.5532C82.4635 11.6432 82.5355 11.8142 82.5355 12.0662C82.5355 12.3542 82.4005 13.0022 82.1305 14.0102C81.9505 14.7302 81.8065 15.3602 81.6985 15.9002C81.5905 16.4402 81.5005 17.1062 81.4285 17.8982C82.0225 16.3502 82.6885 15.0902 83.4265 14.1182C84.1645 13.1462 84.8845 12.4532 85.5865 12.0392C86.2885 11.6252 86.9275 11.4182 87.5035 11.4182C88.0255 11.4182 88.4215 11.5712 88.6915 11.8772C88.9795 12.1652 89.1235 12.5972 89.1235 13.1732C89.1235 13.5152 89.0245 14.1632 88.8265 15.1172H89.0695Z" fill="#333333"/>
</svg>
